# xmcd
#
# Track frame offsets:
#	150
#	11550
#	39000
#	53177
#	71222
#	90353
#	108916
#	131041
#	151988
#
# Disc length: 2282 seconds
#
# Revision: 1
# Processed by: cddbd v1.5.1PL2 Copyright (c) Steve Scherf et al.
# Submitted via: audiograbber 1.83.01
#
DISCID=6908e809
DTITLE=Chubby Blues - Megyek tovább
DYEAR=2005
DGENRE=Blues
TTITLE0=Gyorsan megy az idõ
TTITLE1=Nem volt olyan szép
TTITLE2=Már máshol élsz
TTITLE3=Igy élek én
TTITLE4=Megyek tovább
TTITLE5=Fenn az égen
TTITLE6=Hosszú az út
TTITLE7=Gyere velem szálj
TTITLE8=Say  goodbye
EXTD=
EXTT0=
EXTT1=
EXTT2=
EXTT3=
EXTT4=
EXTT5=
EXTT6=
EXTT7=
EXTT8=
PLAYORDER=
